<mxfile host="app.diagrams.net" modified="2023-05-09T08:21:29.623Z" agent="Mozilla/5.0 (Windows NT 10.0; Win64; x64; rv:109.0) Gecko/20100101 Firefox/112.0" etag="DUxAFZg_bQTuw90Jo2nA" version="21.2.9" type="device">
  <diagram id="C5RBs43oDa-KdzZeNtuy" name="Page-1">
    <mxGraphModel dx="574" dy="313" grid="1" gridSize="10" guides="1" tooltips="1" connect="1" arrows="1" fold="1" page="1" pageScale="1" pageWidth="827" pageHeight="1169" math="0" shadow="0">
      <root>
        <mxCell id="WIyWlLk6GJQsqaUBKTNV-0" />
        <mxCell id="WIyWlLk6GJQsqaUBKTNV-1" parent="WIyWlLk6GJQsqaUBKTNV-0" />
        <mxCell id="AfS4qtVW7Ot3DHja4RUl-1" value="Leap year" style="rounded=0;whiteSpace=wrap;html=1;fontStyle=0" vertex="1" parent="WIyWlLk6GJQsqaUBKTNV-1">
          <mxGeometry x="240" y="310" width="120" height="60" as="geometry" />
        </mxCell>
        <mxCell id="AfS4qtVW7Ot3DHja4RUl-2" value="" style="endArrow=none;html=1;rounded=0;" edge="1" parent="WIyWlLk6GJQsqaUBKTNV-1">
          <mxGeometry width="50" height="50" relative="1" as="geometry">
            <mxPoint x="300" y="430" as="sourcePoint" />
            <mxPoint x="300" y="370" as="targetPoint" />
          </mxGeometry>
        </mxCell>
        <mxCell id="AfS4qtVW7Ot3DHja4RUl-3" value="if ((year%400==0)||(year%4==0)||(year%100!=0))" style="rounded=0;whiteSpace=wrap;html=1;" vertex="1" parent="WIyWlLk6GJQsqaUBKTNV-1">
          <mxGeometry x="240" y="430" width="120" height="60" as="geometry" />
        </mxCell>
        <mxCell id="AfS4qtVW7Ot3DHja4RUl-4" value="&lt;div&gt;If (year%100==0)&lt;/div&gt;&lt;div&gt;not leap year&lt;br&gt;&lt;/div&gt;" style="rounded=0;whiteSpace=wrap;html=1;" vertex="1" parent="WIyWlLk6GJQsqaUBKTNV-1">
          <mxGeometry x="240" y="210" width="120" height="60" as="geometry" />
        </mxCell>
        <mxCell id="AfS4qtVW7Ot3DHja4RUl-5" value="" style="endArrow=none;html=1;rounded=0;" edge="1" parent="WIyWlLk6GJQsqaUBKTNV-1" source="AfS4qtVW7Ot3DHja4RUl-1">
          <mxGeometry width="50" height="50" relative="1" as="geometry">
            <mxPoint x="299.8" y="300" as="sourcePoint" />
            <mxPoint x="299.8" y="270" as="targetPoint" />
          </mxGeometry>
        </mxCell>
        <mxCell id="AfS4qtVW7Ot3DHja4RUl-6" value="&lt;div&gt;General condition checking leap year:&lt;/div&gt;&lt;div&gt;if(year%4==0 &amp;amp;&amp;amp; (year%100!=0 || year%400==0))&lt;br&gt;&lt;/div&gt;" style="rounded=0;whiteSpace=wrap;html=1;" vertex="1" parent="WIyWlLk6GJQsqaUBKTNV-1">
          <mxGeometry x="80" y="305" width="140" height="70" as="geometry" />
        </mxCell>
        <mxCell id="AfS4qtVW7Ot3DHja4RUl-7" value="" style="shape=link;html=1;rounded=0;" edge="1" parent="WIyWlLk6GJQsqaUBKTNV-1">
          <mxGeometry width="100" relative="1" as="geometry">
            <mxPoint x="220" y="340" as="sourcePoint" />
            <mxPoint x="240" y="340" as="targetPoint" />
          </mxGeometry>
        </mxCell>
      </root>
    </mxGraphModel>
  </diagram>
</mxfile>
